<svg id="Layer_1" height="35" viewBox="0 0 800 800" width="50" xmlns="http://www.w3.org/2000/svg"><g><path d="m340.839 33.385v-33.385h-170.365v33.385h-90.824v477.929h352.014v-477.929zm-140.365-3.385h110.365v36.769h-110.365zm201.19 451.313h-292.014v-417.928h60.824v33.384h170.365v-33.384h60.824v417.928z"/><path d="m177.792 217.808-13.419-16.785-23.432 18.733 36.581 45.757 56.744-69.354-23.219-18.997z"/><path d="m208.383 308.97-21.401 21.401-21.401-21.401-21.213 21.213 21.401 21.401-21.401 21.401 21.213 21.213 21.401-21.401 21.401 21.401 21.213-21.213-21.401-21.401 21.401-21.401z"/><path d="m264.657 211.994h104v30h-104z"/><path d="m264.657 336.584h104v30h-104z"/></g></svg>